<?xml version="1.0" standalone="no"?>
<!DOCTYPE svg PUBLIC "-//W3C//DTD SVG 20010904//EN"
 "http://www.w3.org/TR/2001/REC-SVG-20010904/DTD/svg10.dtd">
<svg version="1.0" xmlns="http://www.w3.org/2000/svg"
 width="512.000000pt" height="512.000000pt" viewBox="0 0 512.000000 512.000000"
 preserveAspectRatio="xMidYMid meet">

<g transform="translate(0.000000,512.000000) scale(0.100000,-0.100000)"
fill="#dc6565" stroke="none">
<path d="M4040 5008 c-103 -12 -254 -66 -352 -124 -46 -28 -117 -84 -163 -129
-125 -122 -195 -237 -245 -402 -12 -40 -23 -73 -24 -73 -2 0 -58 25 -127 56
-286 128 -695 207 -984 189 -584 -37 -1078 -257 -1475 -656 -474 -476 -707
-1147 -625 -1804 36 -290 99 -505 220 -745 180 -358 482 -685 819 -888 144
-88 183 -107 319 -161 220 -88 377 -125 657 -157 160 -18 244 -15 473 16 227
30 372 69 569 154 503 214 925 627 1146 1121 88 197 128 336 171 590 42 254
37 462 -19 747 -33 167 -68 290 -106 376 -13 30 -24 56 -24 57 0 2 29 8 66 14
297 52 576 281 684 564 47 121 63 206 63 342 0 262 -91 478 -277 660 -144 140
-334 231 -531 254 -102 12 -129 12 -235 -1z m235 -118 c314 -45 568 -267 661
-575 23 -78 27 -108 27 -220 0 -112 -4 -142 -27 -220 -48 -159 -141 -300 -261
-398 -452 -366 -1113 -161 -1281 398 -23 78 -27 108 -27 220 0 112 4 142 27
220 117 388 489 631 881 575z m-2327 -1244 c100 -27 186 -95 252 -200 19 -29
35 -45 40 -40 5 5 29 38 53 74 46 69 136 140 204 160 202 60 418 -32 512 -219
34 -67 52 -151 32 -151 -23 0 -80 -46 -121 -98 -47 -58 -80 -142 -80 -202 0
-33 3 -40 19 -40 16 0 20 10 26 53 12 86 42 142 107 202 74 67 125 81 227 64
246 -42 411 -295 347 -532 -35 -128 -141 -244 -271 -295 l-50 -20 -5 -410 -5
-410 -25 -20 c-62 -51 -256 -117 -402 -137 l-48 -6 0 398 c0 219 -4 404 -9
412 -5 8 -16 11 -25 8 -14 -6 -16 -50 -16 -415 l0 -409 -31 -7 c-49 -9 -399
-27 -409 -21 -6 4 -10 164 -10 420 0 341 -2 414 -14 418 -34 13 -36 -12 -36
-424 0 -253 -4 -410 -10 -414 -10 -6 -360 12 -409 21 l-31 6 -2 422 c-3 366
-5 421 -18 421 -13 0 -16 -55 -20 -415 l-5 -415 -50 3 c-71 4 -263 56 -327 87
-29 15 -65 39 -80 53 l-28 26 0 406 0 406 -54 18 c-107 37 -204 130 -257 249
-20 43 -24 68 -24 153 0 96 1 103 39 179 67 135 181 222 318 243 75 12 148 5
148 -13 0 -25 61 -132 96 -168 51 -52 109 -84 187 -103 54 -14 69 -14 82 -4
24 20 2 37 -54 42 -98 10 -196 79 -240 171 -12 25 -27 75 -32 112 -10 63 -9
68 19 130 85 181 299 282 490 231z m-682 -2141 c48 -33 257 -100 389 -124 283
-52 877 -52 1160 0 111 20 279 71 349 105 38 18 72 32 75 30 3 -2 4 -69 1
-149 -5 -138 -6 -147 -30 -173 -89 -96 -260 -153 -615 -205 -142 -21 -599 -18
-750 5 -313 47 -446 88 -548 168 -61 48 -67 70 -67 223 0 74 3 135 8 135 4 0
17 -7 28 -15z"/>
<path d="M4548 4388 c-14 -13 -100 -106 -190 -208 -218 -244 -257 -280 -303
-280 -32 0 -46 9 -109 73 -39 39 -97 100 -129 135 -50 56 -60 63 -89 60 -24
-2 -36 -10 -46 -31 -12 -24 -11 -31 5 -56 39 -62 217 -243 267 -271 90 -52
181 -36 271 48 56 51 411 446 425 472 8 15 8 27 -2 48 -18 37 -66 42 -100 10z"/>
</g>
</svg>
