<?xml version="1.0" standalone="no"?>
<!DOCTYPE svg PUBLIC "-//W3C//DTD SVG 20010904//EN"
 "http://www.w3.org/TR/2001/REC-SVG-20010904/DTD/svg10.dtd">
<svg version="1.0" xmlns="http://www.w3.org/2000/svg"
 width="499.000000pt" height="500.000000pt" viewBox="0 0 499.000000 500.000000"
 preserveAspectRatio="xMidYMid meet">

<g transform="translate(0.000000,500.000000) scale(0.100000,-0.100000)"
fill="#000000" stroke="none">
<path d="M2330 3964 c-14 -2 -59 -9 -99 -15 -327 -48 -654 -210 -899 -443 -30
-28 -62 -68 -73 -89 -81 -156 32 -342 206 -341 75 1 117 22 210 104 242 215
502 314 820 314 319 0 578 -99 820 -314 93 -82 135 -103 210 -104 132 -1 229
98 230 234 0 90 -27 134 -145 238 -316 278 -708 424 -1125 420 -71 0 -141 -2
-155 -4z"/>
<path d="M2380 3304 c-238 -41 -411 -124 -552 -264 -70 -71 -95 -139 -78 -215
28 -124 112 -194 233 -195 68 0 111 19 188 85 112 96 265 140 402 115 89 -15
180 -59 249 -118 71 -60 120 -82 191 -82 151 0 266 151 223 293 -19 64 -63
116 -158 187 -172 130 -335 188 -548 195 -69 2 -136 2 -150 -1z"/>
<path d="M2420 2667 c-53 -17 -124 -93 -138 -149 -7 -26 -12 -55 -12 -66 0
-15 -15 -23 -74 -40 -256 -75 -497 -274 -620 -512 -39 -74 -96 -225 -96 -251
0 -5 444 -9 1015 -9 571 0 1015 4 1015 9 0 26 -57 177 -96 251 -122 238 -365
437 -620 512 -59 17 -74 25 -74 40 0 56 -25 114 -69 158 -66 65 -144 84 -231
57z"/>
<path d="M1230 1415 l0 -75 88 0 87 0 75 -148 75 -147 940 0 940 0 75 147 75
148 88 0 87 0 0 75 0 75 -1265 0 -1265 0 0 -75z"/>
</g>
</svg>
